<?xml version="1.0" encoding="UTF-8" standalone="no"?>
<svg
   height="480"
   width="800"
   version="1.1"
   id="svg3095"
   inkscape:version="1.1.2 (b8e25be833, 2022-02-05)"
   sodipodi:docname="screen-template.1.svg"
   xmlns:inkscape="http://www.inkscape.org/namespaces/inkscape"
   xmlns:sodipodi="http://sodipodi.sourceforge.net/DTD/sodipodi-0.dtd"
   xmlns="http://www.w3.org/2000/svg"
   xmlns:svg="http://www.w3.org/2000/svg">
  <defs
     id="defs41" />
  <sodipodi:namedview
     id="namedview39"
     pagecolor="#505050"
     bordercolor="#eeeeee"
     borderopacity="1"
     inkscape:pageshadow="0"
     inkscape:pageopacity="0"
     inkscape:pagecheckerboard="0"
     showgrid="false"
     inkscape:zoom="1.565"
     inkscape:cx="373.16294"
     inkscape:cy="239.9361"
     inkscape:window-width="2560"
     inkscape:window-height="1351"
     inkscape:window-x="-9"
     inkscape:window-y="-9"
     inkscape:window-maximized="1"
     inkscape:current-layer="svg3095" />
  <rect
     width="800"
     height="480"
     id="rect3855"
     fill="white" />
  <g
     id="g929">
    <use
       id="currentweathericon"
       href="foggy.svg"
       x="50"
       y="50"
       width="100%"
       height="100%"
       inkscape:label="currentweathericon"
       style="display:inline" />
  </g>
  <text
     id="alertmessage"
     x="0"
     y="35"
     font-size="30px"
     style="font-weight:bold;font-size:30px;line-height:0%;font-family:'Nimbus Mono PS'">ALERT_MESSAGE</text>
  <text
     id="temphighlow"
     x="155"
     y="360"
     font-size="38px"
     style="font-size:38px;line-height:0%;font-family:'Nimbus Sans L';text-anchor:middle">HIGH_ONE/LOW_ONE</text>
  <text
     id="weatherdesc1"
     x="155"
     y="390"
     font-size="38px"
     style="font-size:28px;line-height:0%;font-family:'Nimbus Sans L';text-anchor:middle">WEATHER_DESC_1</text>
  <text
     id="weaetherdesc2"
     x="155"
     y="415"
     font-size="38px"
     style="font-size:28px;line-height:0%;font-family:'Nimbus Sans L';text-anchor:middle">WEATHER_DESC_2</text>
  <path
     d="m 301.08466,394.8254 v 70 h 3 v -235.5 h -3 z"
     id="divider"
     inkscape:connector-curvature="0" />
  <g
     id="calendaricon"
     transform="scale(0.1) translate(3300,2000)">
    <path
       style="fill:#090509"
       d="M 506.645,89.372 C 502.609,76.437 491.008,66.87 476.738,66.87 h -31.782 v 49.326 c 0,26.284 -21.39,47.674 -47.674,47.674 -26.284,0 -47.674,-21.39 -47.674,-47.674 V 66.87 H 158.753 v 49.326 c 0,26.284 -21.39,47.674 -47.674,47.674 -26.284,0 -47.674,-21.39 -47.674,-47.674 V 66.87 H 31.782 c -14.27,0 -25.903,9.567 -29.907,22.502 H 0 v 387.365 c 0,17.544 14.239,31.782 31.782,31.782 h 444.955 c 17.544,0 31.782,-14.239 31.782,-31.782 V 89.372 Z M 476.737,476.737 H 31.782 v -254.26 h 444.955 z"
       id="path132"
       inkscape:connector-curvature="0" />
    <path
       style="fill:#090509"
       d="m 111.08,132.088 c 8.772,0 15.891,-7.119 15.891,-15.891 V 15.891 C 126.971,7.119 119.852,0 111.08,0 102.308,0 95.189,7.119 95.189,15.891 v 100.306 c 0,8.772 7.119,15.891 15.891,15.891 z"
       id="path134"
       inkscape:connector-curvature="0" />
    <path
       style="fill:#090509"
       d="m 397.281,132.088 c 8.74,0 15.891,-7.119 15.891,-15.891 V 15.891 C 413.172,7.119 406.021,0 397.281,0 388.541,0 381.39,7.119 381.39,15.891 v 100.306 c 0,8.772 7.151,15.891 15.891,15.891 z"
       id="path136"
       inkscape:connector-curvature="0" />
  </g>
  <g
     aria-label="CAL_DATETIME_1CAL_DESC_1"
     id="calendarentry1"
     style="font-size:29px;line-height:0%;font-family:'Nimbus Sans L'">
    <path
       d="m 343.52148,274.22754 2.17872,0.55029 q -0.68506,2.68408 -2.47071,4.09912 -1.77441,1.40381 -4.34619,1.40381 -2.66162,0 -4.33496,-1.07812 -1.66211,-1.08936 -2.53809,-3.14453 -0.86474,-2.05518 -0.86474,-4.41358 0,-2.57178 0.97705,-4.48096 0.98828,-1.92041 2.79639,-2.90869 1.81933,-0.99951 3.99804,-0.99951 2.47071,0 4.15528,1.25781 1.68457,1.25782 2.34716,3.5376 l -2.14502,0.50537 q -0.57275,-1.79687 -1.66211,-2.6167 -1.08935,-0.81982 -2.74023,-0.81982 -1.89795,0 -3.17822,0.90967 -1.26905,0.90966 -1.78565,2.44824 -0.5166,1.52734 -0.5166,3.15576 0,2.1001 0.60645,3.67236 0.61767,1.56104 1.90918,2.33594 1.2915,0.7749 2.79638,0.7749 1.83057,0 3.09961,-1.05566 1.26905,-1.05566 1.71826,-3.1333 z"
       style="font-size:23px"
       id="path858" />
    <path
       d="m 346.57617,280 6.32276,-16.46387 h 2.34716 L 361.98437,280 h -2.48193 l -1.92041,-4.98633 h -6.88428 L 348.88965,280 Z m 4.75049,-6.76074 h 5.58154 l -1.71826,-4.55957 q -0.78613,-2.07764 -1.16797,-3.41407 -0.31445,1.5835 -0.8872,3.14454 z"
       style="font-size:23px"
       id="path860" />
    <path
       d="m 363.63525,280 v -16.46387 h 2.17871 v 14.521 h 8.1084 V 280 Z"
       style="font-size:23px"
       id="path862" />
    <path
       d="m 374.39404,284.5708 v -1.45996 h 13.39795 v 1.45996 z"
       style="font-size:23px"
       id="path864" />
    <path
       d="m 389.30811,280 v -16.46387 h 5.67138 q 1.92041,0 2.93115,0.23584 1.41504,0.32569 2.41456,1.1792 1.30273,1.10059 1.94287,2.81885 0.65136,1.70703 0.65136,3.9082 0,1.87549 -0.43798,3.32422 -0.43799,1.44873 -1.12305,2.40332 -0.68506,0.94336 -1.50488,1.49365 -0.8086,0.53907 -1.96534,0.81983 Q 396.74268,280 395.24902,280 Z m 2.17871,-1.94287 h 3.51513 q 1.62842,0 2.54932,-0.30322 0.93213,-0.30323 1.48242,-0.85352 0.7749,-0.7749 1.20166,-2.07764 0.43799,-1.31396 0.43799,-3.17822 0,-2.58301 -0.85352,-3.96435 -0.84228,-1.39258 -2.05517,-1.86426 -0.87598,-0.33692 -2.81885,-0.33692 h -3.45898 z"
       style="font-size:23px"
       id="path866" />
    <path
       d="m 404.10986,280 6.32276,-16.46387 h 2.34717 L 419.51807,280 h -2.48194 l -1.92041,-4.98633 h -6.88427 L 406.42334,280 Z m 4.75049,-6.76074 h 5.58154 l -1.71826,-4.55957 q -0.78613,-2.07764 -1.16797,-3.41407 -0.31445,1.5835 -0.8872,3.14454 z"
       style="font-size:23px"
       id="path868" />
    <path
       d="m 423.74072,280 v -14.521 h -5.42431 v -1.94287 h 13.0498 v 1.94287 h -5.44678 V 280 Z"
       style="font-size:23px"
       id="path870" />
    <path
       d="m 433.646,280 v -16.46387 h 11.90429 v 1.94287 h -9.72558 v 5.04248 h 9.10791 v 1.93164 h -9.10791 v 5.60401 h 10.10742 V 280 Z"
       style="font-size:23px"
       id="path872" />
    <path
       d="m 453.13086,280 v -14.521 h -5.42432 v -1.94287 h 13.04981 v 1.94287 h -5.44678 V 280 Z"
       style="font-size:23px"
       id="path874" />
    <path
       d="m 463.36182,280 v -16.46387 h 2.17871 V 280 Z"
       style="font-size:23px"
       id="path876" />
    <path
       d="m 469.31396,280 v -16.46387 h 3.2793 l 3.89697,11.65723 q 0.53907,1.62842 0.78614,2.43701 0.28076,-0.89844 0.87597,-2.63916 l 3.9419,-11.45508 h 2.93115 V 280 h -2.1001 V 266.22021 L 478.14111,280 h -1.96533 l -4.76172,-14.01563 V 280 Z"
       style="font-size:23px"
       id="path878" />
    <path
       d="m 488.58545,280 v -16.46387 h 11.9043 v 1.94287 h -9.72559 v 5.04248 h 9.10791 v 1.93164 h -9.10791 v 5.60401 h 10.10742 V 280 Z"
       style="font-size:23px"
       id="path880" />
    <path
       d="m 501.75879,284.5708 v -1.45996 h 13.39795 v 1.45996 z"
       style="font-size:23px"
       id="path882" />
    <path
       d="m 523.46729,280 h -2.02149 v -12.88135 q -0.72998,0.69629 -1.92041,1.39258 -1.1792,0.69629 -2.12256,1.04443 v -1.9541 q 1.6958,-0.79736 2.96485,-1.93164 1.26904,-1.13428 1.79687,-2.20117 h 1.30274 z"
       style="font-size:23px"
       id="path884" />
    <path
       d="m 345.39209,297.36768 4.06396,1.28857 q -0.93457,3.39844 -3.11523,5.05518 -2.1665,1.64257 -5.5083,1.64257 -4.13477,0 -6.79688,-2.81787 -2.6621,-2.83203 -2.6621,-7.73144 0,-5.18262 2.67626,-8.04297 2.67627,-2.87451 7.0376,-2.87451 3.80908,0 6.18799,2.25146 1.41602,1.33106 2.12402,3.82324 l -4.14892,0.99121 q -0.36817,-1.61425 -1.54346,-2.54882 -1.16113,-0.93457 -2.83203,-0.93457 -2.30811,0 -3.75244,1.65673 -1.43018,1.65674 -1.43018,5.3667 0,3.93653 1.41602,5.60743 1.41601,1.67089 3.68164,1.67089 1.6709,0 2.87451,-1.06201 1.20361,-1.06201 1.72754,-3.34179 z"
       style="font-weight:bold"
       id="path886" />
    <path
       d="m 371.77246,305 h -4.55957 l -1.8125,-4.71533 h -8.29785 L 355.38916,305 h -4.44629 l 8.08545,-20.75879 h 4.43213 z m -7.71728,-8.21289 -2.86036,-7.70313 -2.80371,7.70313 z"
       style="font-weight:bold"
       id="path888" />
    <path
       d="m 374.10889,305 v -20.58887 h 4.1914 v 17.09131 h 10.42188 V 305 Z"
       style="font-weight:bold"
       id="path890" />
    <path
       d="m 389.33105,310.73486 v -2.57715 h 16.53907 v 2.57715 z"
       style="font-weight:bold"
       id="path892" />
    <path
       d="m 407.82422,284.24121 h 7.66064 q 2.59131,0 3.95069,0.39649 1.82666,0.53808 3.12939,1.91162 1.30274,1.37353 1.98242,3.37011 0.67969,1.98243 0.67969,4.89942 0,2.56299 -0.63721,4.41797 -0.7788,2.26562 -2.22314,3.66748 -1.09033,1.06201 -2.94531,1.65674 Q 418.03369,305 415.71143,305 h -7.88721 z m 4.1914,3.51172 v 13.74951 h 3.1294 q 1.75586,0 2.53467,-0.19824 1.01953,-0.25488 1.68506,-0.86377 0.67968,-0.60889 1.10449,-1.99658 0.4248,-1.40186 0.4248,-3.80908 0,-2.40723 -0.4248,-3.69581 -0.42481,-1.28857 -1.18945,-2.01074 -0.76465,-0.72217 -1.93995,-0.97705 -0.87793,-0.19824 -3.44091,-0.19824 z"
       style="font-weight:bold"
       id="path894" />
    <path
       d="m 428.78125,305 v -20.75879 h 15.39209 v 3.51172 h -11.20068 v 4.60205 h 10.42187 v 3.49756 h -10.42187 v 5.6499 h 11.59716 V 305 Z"
       style="font-weight:bold"
       id="path896" />
    <path
       d="m 447.06201,298.24561 4.07813,-0.39649 q 0.36816,2.05322 1.48681,3.01611 1.13282,0.96289 3.04444,0.96289 2.0249,0 3.04443,-0.8496 1.03369,-0.86377 1.03369,-2.01075 0,-0.73632 -0.43896,-1.24609 -0.42481,-0.52393 -1.50098,-0.90625 -0.73633,-0.25488 -3.35596,-0.90625 -3.37011,-0.83545 -4.72949,-2.05322 -1.91162,-1.71338 -1.91162,-4.17725 0,-1.58594 0.89209,-2.95947 0.90625,-1.3877 2.59131,-2.10987 1.69922,-0.72216 4.09228,-0.72216 3.90821,0 5.87647,1.71338 1.98242,1.71337 2.08154,4.57373 l -4.1914,0.18408 q -0.26905,-1.6001 -1.16114,-2.29395 -0.87793,-0.708 -2.64795,-0.708 -1.82666,0 -2.86035,0.75048 -0.66553,0.48145 -0.66553,1.28858 0,0.73633 0.62305,1.26025 0.79297,0.66553 3.85156,1.3877 3.0586,0.72216 4.51709,1.50097 1.47266,0.76465 2.29395,2.10987 0.83545,1.33105 0.83545,3.29931 0,1.78418 -0.99121,3.3418 -0.99121,1.55762 -2.80371,2.32227 -1.8125,0.75048 -4.51709,0.75048 -3.93653,0 -6.04639,-1.8125 -2.10986,-1.82666 -2.52051,-5.31005 z"
       style="font-weight:bold"
       id="path898" />
    <path
       d="m 480.74902,297.36768 4.06397,1.28857 q -0.93457,3.39844 -3.11524,5.05518 -2.1665,1.64257 -5.5083,1.64257 -4.13476,0 -6.79687,-2.81787 -2.66211,-2.83203 -2.66211,-7.73144 0,-5.18262 2.67627,-8.04297 2.67627,-2.87451 7.0376,-2.87451 3.80908,0 6.18798,2.25146 1.41602,1.33106 2.12403,3.82324 l -4.14893,0.99121 q -0.36816,-1.61425 -1.54346,-2.54882 -1.16113,-0.93457 -2.83203,-0.93457 -2.3081,0 -3.75244,1.65673 -1.43017,1.65674 -1.43017,5.3667 0,3.93653 1.41601,5.60743 1.41602,1.67089 3.68164,1.67089 1.6709,0 2.87451,-1.06201 1.20362,-1.06201 1.72754,-3.34179 z"
       style="font-weight:bold"
       id="path900" />
    <path
       d="m 486.03076,310.73486 v -2.57715 h 16.53906 v 2.57715 z"
       style="font-weight:bold"
       id="path902" />
    <path
       d="m 513.84131,305 h -3.97901 v -14.99561 q -2.18066,2.03907 -5.14013,3.01612 v -3.61084 q 1.55762,-0.50977 3.38428,-1.92578 1.82666,-1.43018 2.50634,-3.32764 h 3.22852 z"
       style="font-weight:bold"
       id="path904" />
  </g>
  <text
     id="calendarentry2"
     x="330"
     y="305"
     font-size="29px"
     style="font-size:29px;line-height:0%;font-family:'Nimbus Sans L'"><tspan
       x="330"
       dy="25"
       style="font-size:23px"
       id="tspan19">CAL_DATETIME_2</tspan><tspan
       style="font-weight:bold"
       x="330"
       dy="25"
       id="tspan21">CAL_DESC_2</tspan></text>
  <text
     id="calendarentry3"
     x="330"
     y="355"
     font-size="29px"
     style="font-size:29px;line-height:0%;font-family:'Nimbus Sans L'"><tspan
       x="330"
       dy="25"
       style="font-size:23px"
       id="tspan24">CAL_DATETIME_3</tspan><tspan
       style="font-weight:bold"
       x="330"
       dy="25"
       id="tspan26">CAL_DESC_3</tspan></text>
  <text
     id="calendarentry4"
     x="330"
     y="405"
     font-size="29px"
     style="font-size:29px;line-height:0%;font-family:'Nimbus Sans L'"><tspan
       x="330"
       dy="25"
       style="font-size:23px"
       id="tspan29">CAL_DATETIME_4</tspan><tspan
       style="font-weight:bold"
       x="330"
       dy="25"
       id="tspan31">CAL_DESC_4</tspan></text>
  <text
     id="textday"
     x="600"
     y="75"
     style="font-weight:600;font-size:47px;line-height:0%;font-family:'Nimbus Sans L';text-anchor:middle">DAY_NAME</text>
  <text
     id="textdate"
     x="600"
     y="130"
     style="font-size:40px;line-height:0%;font-family:'Nimbus Sans L';text-anchor:middle">DAY_ONE</text>
  <text
     id="texttime"
     x="30"
     y="125"
     font-size="100px"
     style="font-weight:bold;font-size:100px;line-height:0%;font-family:'Nimbus Sans L'">TIME_NOW</text>
  <use
     id="customdata"
     href="screen-output-custom-temp.svg" />
</svg>
