<?xml version="1.0" encoding="UTF-8" standalone="no"?>
<svg
   version="1.1"
   id="svg3"
   sodipodi:docname="scattered_clouds.svg"
   inkscape:version="1.1.2 (b8e25be833, 2022-02-05)"
   xmlns:inkscape="http://www.inkscape.org/namespaces/inkscape"
   xmlns:sodipodi="http://sodipodi.sourceforge.net/DTD/sodipodi-0.dtd"
   xmlns="http://www.w3.org/2000/svg"
   xmlns:svg="http://www.w3.org/2000/svg">
  <defs
     id="defs7" />
  <sodipodi:namedview
     id="namedview5"
     pagecolor="#505050"
     bordercolor="#eeeeee"
     borderopacity="1"
     inkscape:pageshadow="0"
     inkscape:pageopacity="0"
     inkscape:pagecheckerboard="0"
     showgrid="false"
     inkscape:zoom="4.1733333"
     inkscape:cx="150"
     inkscape:cy="74.880192"
     inkscape:window-width="2560"
     inkscape:window-height="1351"
     inkscape:window-x="-9"
     inkscape:window-y="-9"
     inkscape:window-maximized="1"
     inkscape:current-layer="svg3" />
  <path
     id="scattered_clouds"
     d="m 40.164,0 v 14.3256 h 3.75 V 0 Z m -16.5756,4.0872 -3.1872,1.9872 7.5744,12.1512 3.1884,-1.9884 z m 37.1256,0.3756 -6.9384,12.5244 3.3,1.8384 L 64.014,6.3 Z m -53.4384,13.65 -1.83756,3.3 12.4884,6.9372 1.8,-3.3 -12.4512,-6.9372 z m 34.7616,0.5616 c -12.81,0 -23.1744,10.434 -23.1744,23.2884 0,10.8648 7.4076,19.9428 17.4372,22.5 C 32.5752,66.3744 30,70.2456 30,74.7 c 0,3.168 1.4568,5.8236 3.6744,7.3128 1.8096,1.2144 3.972,1.7484 6.2628,1.9128 V 84 h 1.5756 2.1744 27.3 16.05 14.7372 C 111.81,84 120,75.8124 120,65.7744 c 0,-10.0368 -8.1888,-18.1872 -18.2256,-18.1872 -1.4448,0 -2.802,0.2376 -4.1244,0.5628 C 95.0724,38.5992 86.4744,31.5 76.1256,31.5 c -4.4304,0 -8.5296,1.2972 -12,3.5256 C 61.1868,25.56 52.428,18.6744 42.0372,18.6744 Z M 77.1,19.1256 64.7628,26.2872 66.6372,29.55 79.0128,22.3872 Z m -0.9744,16.6488 c 9.078,0 16.5144,6.6864 17.8872,15.3756 l 0.3744,2.5872 2.4756,-0.9372 c 1.56,-0.5916 3.2016,-0.9372 4.9116,-0.9372 7.7232,0 13.9512,6.1908 13.9512,13.9116 0,7.722 -6.2292,13.9512 -13.9512,13.9512 H 87.0372 70.9872 41.5128 c -2.3196,0 -4.2636,-0.4872 -5.4384,-1.2756 -1.1736,-0.7884 -1.8,-1.7388 -1.8,-3.75 0,-4.0164 3.2172,-7.2372 7.2384,-7.2372 0.6648,0 1.356,0.1512 2.1,0.3744 L 46.35,68.6628 V 65.7744 65.55 c 0,-4.8804 3.8952,-8.7756 8.7756,-8.7756 -0.0708,0 0.1164,0.0432 0.6,0.0756 l 2.4,0.15 -0.1128,-2.4 c -0.0264,-0.5856 -0.0756,-0.7752 -0.0756,-0.6372 0,-10.0608 8.1204,-18.1884 18.1884,-18.1884 z M 0,39 v 3.75 H 14.2872 V 39 Z M 16.2744,52.3872 4.2,60 6.15,63.1872 18.2628,55.5744 Z M 26.4,64.7256 l -6.9,12.5616 3.2628,1.8 L 29.7,66.5628 Z"
     style="stroke-width:1.2" />
</svg>
